<?xml version="1.0" encoding="utf-8"?>
<!--
  - Copyright (c) 2023.
  - betaCheck.me
  - GNU General Public License v3.0 or later [GPL-3.0-or-later]
  - This program is free software: you can redistribute it and/or modify it under the terms of the GNU General Public License as published by the Free Software Foundation, either version 3 of the License, or (at your option) any later version.
  - This program is distributed in the hope that it will be useful, but WITHOUT ANY WARRANTY; without even the implied warranty of MERCHANTABILITY or FITNESS FOR A PARTICULAR PURPOSE. See the GNU General Public License for more details. See <https://www.gnu.org/licenses/> <https://spdx.org/licenses/GPL-3.0-or-later.html>
  -
  -->

<!-- Generator: Adobe Illustrator 27.3.1, SVG Export Plug-In . SVG Version: 6.00 Build 0)  -->
<svg version="1.1" id="Layer_1" xmlns="http://www.w3.org/2000/svg" xmlns:xlink="http://www.w3.org/1999/xlink" x="0px" y="0px"
	 viewBox="0 0 400 75" style="enable-background:new 0 0 400 75;" xml:space="preserve">
<style type="text/css">
	.st0{fill:#FFC0CB;}
	.st1{fill:#DC143C;}
</style>
<g>
	<path class="st0" d="M19.1,66.7c-3.4,0-6.2-0.9-8.5-2.6c-2.2-1.8-3.8-3.9-4.8-6.5l-1.8,8.3H0.5L12.9,7.5h4l-5.5,25.8
		c2.5-2.9,5.2-5.2,8.1-7c2.9-1.8,6-2.7,9.2-2.7c2.4,0,4.5,0.5,6.2,1.5c1.8,1,3.2,2.3,4.4,3.9c1.2,1.6,2.1,3.4,2.7,5.5
		c0.6,2.1,0.9,4.1,0.9,6.3c0,3.4-0.7,6.7-2,9.8c-1.4,3.1-3.2,5.9-5.4,8.3c-2.2,2.4-4.8,4.3-7.6,5.7C25,66,22.1,66.7,19.1,66.7z
		 M19.1,63.1c2.5,0,4.9-0.6,7.3-1.8c2.4-1.2,4.5-2.9,6.3-4.9c1.8-2.1,3.3-4.4,4.4-7c1.1-2.6,1.6-5.3,1.6-8.1c0-1.8-0.3-3.6-0.8-5.3
		c-0.5-1.7-1.3-3.2-2.3-4.5c-1-1.3-2.2-2.3-3.7-3.1c-1.4-0.8-3.1-1.2-5-1.2c-1.6,0-3.2,0.3-4.7,0.9c-1.5,0.6-3,1.4-4.4,2.3
		c-1.4,1-2.7,2.1-4,3.4c-1.3,1.3-2.4,2.6-3.6,4.1L7.2,53.2c0.2,1.4,0.6,2.8,1.3,4c0.7,1.2,1.6,2.3,2.6,3.2c1.1,0.9,2.3,1.6,3.6,2
		C16.1,62.9,17.5,63.1,19.1,63.1z"/>
	<path class="st0" d="M64.3,66.7c-2.5,0-4.7-0.5-6.7-1.4c-1.9-0.9-3.6-2.2-5-3.8c-1.4-1.6-2.4-3.5-3.1-5.6c-0.7-2.1-1-4.4-1-6.8
		c0-3.3,0.6-6.4,1.9-9.5s3-5.8,5.2-8.2c2.2-2.4,4.9-4.3,7.9-5.7c3-1.4,6.3-2.2,9.8-2.2c1.7,0,3.3,0.2,4.8,0.7
		c1.5,0.5,2.9,1.2,4.1,2.1c1.2,0.9,2.2,2.1,2.9,3.5s1.1,3,1.1,4.8c0,8-7.3,12-21.7,12c-1.7,0-3.5,0-5.4-0.1c-1.9-0.1-4-0.2-6.3-0.3
		c-0.1,0.4-0.1,0.9-0.1,1.4c0,0.5,0,0.9,0,1.4c0,2,0.3,3.8,0.8,5.6s1.3,3.3,2.3,4.6c1,1.3,2.3,2.3,3.9,3.1c1.6,0.8,3.4,1.2,5.5,1.2
		c1.3,0,2.7-0.2,4.1-0.6c1.4-0.4,2.8-1,4-1.7c1.3-0.7,2.5-1.6,3.6-2.6c1.1-1,2-2.2,2.8-3.5l3.4,1c-1,1.6-2.1,3-3.5,4.3
		c-1.4,1.3-2.9,2.4-4.5,3.3c-1.6,0.9-3.3,1.7-5.2,2.2C68,66.4,66.1,66.7,64.3,66.7z M72.8,26.9c-2.5,0-4.8,0.5-6.9,1.4
		c-2.1,0.9-4,2.2-5.6,3.7c-1.7,1.5-3.1,3.3-4.2,5.2s-2.1,4-2.6,6.1c2.2,0.2,4.2,0.3,6,0.3c1.8,0.1,3.5,0.1,5.2,0.1
		c3.3,0,6.1-0.2,8.4-0.7c2.3-0.5,4.1-1.1,5.5-1.9c1.4-0.8,2.4-1.7,3-2.8c0.6-1.1,0.9-2.3,0.9-3.6s-0.3-2.5-0.8-3.5
		c-0.6-1-1.3-1.8-2.2-2.4s-1.9-1.1-3.1-1.4C75.2,27,74,26.9,72.8,26.9z"/>
	<path class="st0" d="M98.6,66.4c-1.9,0-3.4-0.5-4.6-1.4c-1.2-1-1.8-2.4-1.8-4.2c0-0.3,0-0.5,0-0.8c0-0.3,0.1-0.6,0.1-0.9L99,27.6
		h-5.6l0.7-3.3h5.6l3-14.2h4l-3,14.2h9.2l-0.7,3.3H103l-6,28.1c-0.4,1.7-0.6,2.8-0.6,3.2c0,1.2,0.4,2.1,1.2,2.8
		c0.8,0.6,1.7,0.9,2.8,0.9c0.8,0,1.6-0.1,2.3-0.2c0.7-0.2,1.4-0.4,2-0.6c0.6-0.2,1.1-0.5,1.5-0.6s0.7-0.3,0.8-0.4l0.5,3.2
		c-0.2,0.2-0.6,0.4-1.2,0.6c-0.6,0.3-1.2,0.5-2,0.8c-0.8,0.3-1.7,0.5-2.6,0.7C100.6,66.3,99.6,66.4,98.6,66.4z"/>
	<path class="st0" d="M128.6,66.7c-2.3,0-4.4-0.5-6.2-1.4c-1.8-1-3.4-2.2-4.7-3.8c-1.3-1.6-2.3-3.5-2.9-5.6c-0.7-2.1-1-4.3-1-6.7
		c0-3.3,0.6-6.4,1.9-9.5c1.3-3.1,3-5.8,5.2-8.2c2.2-2.4,4.6-4.3,7.4-5.8c2.8-1.4,5.7-2.2,8.7-2.2c1.8,0,3.3,0.3,4.8,0.8
		c1.4,0.5,2.7,1.2,3.8,2.1c1.1,0.9,2.1,1.9,2.9,3.1c0.8,1.2,1.4,2.4,1.9,3.8l1.9-9h4.1l-7.7,35.8c-0.1,0.4-0.2,0.7-0.2,1
		c0,0.8,0.5,1.2,1.4,1.2l-0.8,3.6c-0.3,0.1-0.5,0.1-0.7,0.1c-0.2,0-0.4,0-0.5,0c-1.1,0-1.9-0.3-2.4-0.8c-0.6-0.5-0.8-1.2-0.8-2.1
		c0-0.2,0-0.4,0-0.6c0-0.2,0.1-0.6,0.2-1c0.1-0.4,0.2-0.9,0.3-1.6c0.1-0.6,0.3-1.5,0.5-2.5c-2.2,2.8-4.8,5-7.8,6.6
		C134.7,65.9,131.7,66.7,128.6,66.7z M130.1,63.1c1.4,0,3-0.3,4.7-0.9c1.7-0.6,3.3-1.4,4.9-2.4c1.6-1,3-2.2,4.2-3.6
		c1.2-1.4,2.1-2.8,2.6-4.3l2.9-13.7c-0.2-1.5-0.7-2.9-1.4-4.2c-0.7-1.3-1.6-2.5-2.7-3.5c-1.1-1-2.3-1.8-3.7-2.4
		c-1.4-0.6-2.9-0.9-4.5-0.9c-2.6,0-5,0.6-7.3,1.9c-2.3,1.3-4.3,2.9-6,5c-1.7,2.1-3.1,4.4-4.2,6.9c-1,2.6-1.6,5.1-1.6,7.7
		c0,1.9,0.3,3.8,0.9,5.5c0.6,1.8,1.4,3.3,2.5,4.6c1.1,1.3,2.3,2.3,3.8,3.1C126.7,62.7,128.3,63.1,130.1,63.1z"/>
	<path class="st1" d="M161.4,37.1c0-3.5,0.6-6.9,1.9-10.3c1.3-3.4,3.1-6.4,5.5-9.1c2.4-2.7,5.3-4.8,8.8-6.5
		c3.5-1.7,7.4-2.5,11.8-2.5c5.2,0,9.7,1.1,13.6,3.4c3.8,2.3,6.6,5.3,8.5,9L203,27c-0.7-1.6-1.7-2.9-2.7-4c-1.1-1.1-2.2-2-3.4-2.6
		c-1.2-0.6-2.5-1.1-3.8-1.4c-1.3-0.3-2.6-0.4-3.9-0.4c-2.8,0-5.2,0.6-7.2,1.7c-2.1,1.1-3.8,2.6-5.1,4.4c-1.4,1.8-2.4,3.8-3.1,6.1
		c-0.7,2.3-1,4.5-1,6.8c0,2.5,0.4,4.9,1.2,7.2c0.8,2.3,1.9,4.4,3.4,6.1c1.5,1.8,3.2,3.2,5.3,4.2c2.1,1.1,4.3,1.6,6.8,1.6
		c1.3,0,2.6-0.2,4-0.5c1.4-0.3,2.7-0.8,4-1.5c1.3-0.7,2.4-1.6,3.5-2.7c1.1-1.1,1.9-2.4,2.6-4l9,5.2c-0.9,2.1-2.2,4-3.9,5.6
		c-1.7,1.6-3.6,3-5.7,4.1c-2.1,1.1-4.4,2-6.8,2.6c-2.4,0.6-4.7,0.9-7,0.9c-4.1,0-7.8-0.9-11.1-2.6c-3.4-1.7-6.2-3.9-8.7-6.7
		c-2.4-2.7-4.3-5.9-5.7-9.4C162.1,44.3,161.4,40.7,161.4,37.1z"/>
	<path class="st1" d="M257.6,65.9h-10.7V42.4c0-3.3-0.6-5.7-1.8-7.3c-1.2-1.6-3-2.4-5.2-2.4c-1,0-2,0.2-3,0.6c-1.1,0.4-2.1,1-3,1.8
		c-1,0.8-1.8,1.7-2.6,2.8c-0.8,1.1-1.4,2.2-1.8,3.5v24.5h-10.7V7.5h10.7v24.2c1.5-2.7,3.6-4.8,6.3-6.3c2.6-1.5,5.6-2.2,8.8-2.2
		c2.7,0,4.9,0.5,6.6,1.4c1.7,0.9,3,2.2,4,3.7c1,1.5,1.6,3.3,2,5.3c0.4,2,0.6,4,0.6,6.1V65.9z"/>
	<path class="st1" d="M286.4,66.7c-3.4,0-6.4-0.6-9.1-1.7c-2.7-1.1-5-2.7-7-4.7c-1.9-2-3.4-4.3-4.4-6.9c-1-2.6-1.6-5.4-1.6-8.2
		c0-3,0.5-5.8,1.5-8.4c1-2.6,2.5-5,4.4-7c1.9-2,4.2-3.6,7-4.8c2.7-1.2,5.8-1.8,9.2-1.8c3.4,0,6.5,0.6,9.2,1.8c2.7,1.2,5,2.7,6.9,4.7
		c1.9,2,3.3,4.3,4.3,6.9c1,2.6,1.5,5.3,1.5,8.2c0,0.7,0,1.4,0,2c0,0.6-0.1,1.2-0.2,1.6h-32.4c0.2,1.7,0.6,3.1,1.2,4.4
		c0.6,1.3,1.5,2.4,2.5,3.3c1,0.9,2.2,1.6,3.4,2.1c1.3,0.5,2.6,0.7,4,0.7c2.1,0,4.1-0.5,6-1.6c1.9-1,3.2-2.4,3.9-4.1l9.2,2.6
		c-1.5,3.2-4,5.8-7.4,7.9C295.1,65.7,291.1,66.7,286.4,66.7z M297.3,41.4c-0.3-3.1-1.4-5.7-3.5-7.6c-2.1-1.9-4.5-2.8-7.5-2.8
		c-1.4,0-2.8,0.3-4,0.8c-1.3,0.5-2.4,1.2-3.3,2.1c-1,0.9-1.7,2-2.4,3.3c-0.6,1.3-1,2.7-1.1,4.2H297.3z"/>
	<path class="st1" d="M312.2,44.9c0-2.9,0.5-5.7,1.5-8.3c1-2.6,2.5-4.9,4.4-6.9c1.9-2,4.2-3.5,7-4.7c2.7-1.2,5.8-1.8,9.2-1.8
		c4.6,0,8.5,1,11.7,3c3.2,2,5.6,4.6,7.2,7.8l-10.5,3.2c-0.9-1.5-2.1-2.7-3.6-3.6c-1.5-0.8-3.1-1.2-5-1.2c-1.5,0-3,0.3-4.3,0.9
		c-1.3,0.6-2.5,1.5-3.5,2.6c-1,1.1-1.8,2.4-2.3,4c-0.6,1.5-0.8,3.3-0.8,5.1c0,1.9,0.3,3.6,0.9,5.1c0.6,1.5,1.4,2.9,2.4,4
		c1,1.1,2.1,2,3.5,2.6c1.3,0.6,2.7,0.9,4.2,0.9c1.9,0,3.7-0.5,5.3-1.4c1.6-1,2.8-2.1,3.4-3.5l10.5,3.2c-1.4,3.2-3.8,5.8-7.1,7.8
		c-3.3,2-7.3,3-11.9,3c-3.4,0-6.5-0.6-9.2-1.8c-2.7-1.2-5-2.8-7-4.8c-1.9-2-3.4-4.3-4.4-7C312.7,50.6,312.2,47.8,312.2,44.9z"/>
	<path class="st1" d="M388.6,65.9l-12.2-18.1l-5.8,5.7v12.5h-10.7V7.5h10.7v35.4l16.8-18.9h11.4l-15.6,17.8L400,65.9H388.6z"/>
	<g>
		<path class="st1" d="M386.1,9.2H382v10.6h-2V9.2h-4.1V7.5h10.1V9.2z"/>
		<path class="st1" d="M398,19.8V11l-3.7,6.7h-1.1l-3.7-6.7v8.8h-1.9V7.5h2.1l4.1,7.5l4.1-7.5h2.1v12.3H398z"/>
	</g>
</g>
</svg>
