<?xml version="1.0" encoding="utf-8"?>
<!--
  - Copyright (c) 2023. kinkycraft.com
  - GNU General Public License v3.0 or later [GPL-3.0-or-later]
  - This program is free software: you can redistribute it and/or modify it under the terms of the GNU General Public License as published by the Free Software Foundation, either version 3 of the License, or (at your option) any later version.
  - This program is distributed in the hope that it will be useful, but WITHOUT ANY WARRANTY; without even the implied warranty of MERCHANTABILITY or FITNESS FOR A PARTICULAR PURPOSE. See the GNU General Public License for more details. See <https://www.gnu.org/licenses/> <https://spdx.org/licenses/GPL-3.0-or-later.html>
  -->

<!-- Generator: Adobe Illustrator 27.3.1, SVG Export Plug-In . SVG Version: 6.00 Build 0)  -->
<svg version="1.1" id="Layer_1" xmlns="http://www.w3.org/2000/svg" xmlns:xlink="http://www.w3.org/1999/xlink" x="0px" y="0px"
	 viewBox="0 0 1080 612.5" style="enable-background:new 0 0 1080 612.5;" xml:space="preserve">
<style type="text/css">
	.st0{fill:#FFC0CB;}
	.st1{fill:#DC143C;}
</style>
<g>
	<path class="st0" d="M299.8,128c-4.5,0-8.2-1.2-11.3-3.4c-2.9-2.4-5-5.2-6.4-8.6l-2.4,11h-4.6l16.4-77.4h5.3l-7.3,34.2
		c3.3-3.8,6.9-6.9,10.7-9.3c3.8-2.4,8-3.6,12.2-3.6c3.2,0,6,0.7,8.2,2c2.4,1.3,4.2,3,5.8,5.2s2.8,4.5,3.6,7.3
		c0.8,2.8,1.2,5.4,1.2,8.4c0,4.5-0.9,8.9-2.7,13c-1.9,4.1-4.2,7.8-7.2,11c-2.9,3.2-6.4,5.7-10.1,7.6
		C307.6,127.1,303.8,128,299.8,128z M299.8,123.2c3.3,0,6.5-0.8,9.7-2.4c3.2-1.6,6-3.8,8.4-6.5c2.4-2.8,4.4-5.8,5.8-9.3
		c1.5-3.4,2.1-7,2.1-10.7c0-2.4-0.4-4.8-1.1-7c-0.7-2.3-1.7-4.2-3-6c-1.3-1.7-2.9-3-4.9-4.1c-1.9-1.1-4.1-1.6-6.6-1.6
		c-2.1,0-4.2,0.4-6.2,1.2c-2,0.8-4,1.9-5.8,3c-1.9,1.3-3.6,2.8-5.3,4.5c-1.7,1.7-3.2,3.4-4.8,5.4l-4,20.3c0.3,1.9,0.8,3.7,1.7,5.3
		s2.1,3,3.4,4.2c1.5,1.2,3,2.1,4.8,2.7C295.8,123,297.7,123.2,299.8,123.2z"/>
	<path class="st0" d="M359.7,128c-3.3,0-6.2-0.7-8.9-1.9c-2.5-1.2-4.8-2.9-6.6-5s-3.2-4.6-4.1-7.4s-1.3-5.8-1.3-9
		c0-4.4,0.8-8.5,2.5-12.6c1.7-4.1,4-7.7,6.9-10.9s6.5-5.7,10.5-7.6c4-1.9,8.4-2.9,13-2.9c2.3,0,4.4,0.3,6.4,0.9s3.8,1.6,5.4,2.8
		c1.6,1.2,2.9,2.8,3.8,4.6s1.5,4,1.5,6.4c0,10.6-9.7,15.9-28.8,15.9c-2.3,0-4.6,0-7.2-0.1c-2.5-0.1-5.3-0.3-8.4-0.4
		c-0.1,0.5-0.1,1.2-0.1,1.9s0,1.2,0,1.9c0,2.7,0.4,5,1.1,7.4c0.7,2.4,1.7,4.4,3,6.1c1.3,1.7,3,3,5.2,4.1c2.1,1.1,4.5,1.6,7.3,1.6
		c1.7,0,3.6-0.3,5.4-0.8c1.9-0.5,3.7-1.3,5.3-2.3c1.7-0.9,3.3-2.1,4.8-3.4c1.5-1.3,2.7-2.9,3.7-4.6l4.5,1.3c-1.3,2.1-2.8,4-4.6,5.7
		c-1.9,1.7-3.8,3.2-6,4.4c-2.1,1.2-4.4,2.3-6.9,2.9S362.1,128,359.7,128z M371,75.2c-3.3,0-6.4,0.7-9.1,1.9s-5.3,2.9-7.4,4.9
		c-2.3,2-4.1,4.4-5.6,6.9c-1.5,2.5-2.8,5.3-3.4,8.1c2.9,0.3,5.6,0.4,8,0.4c2.4,0.1,4.6,0.1,6.9,0.1c4.4,0,8.1-0.3,11.1-0.9
		c3-0.7,5.4-1.5,7.3-2.5s3.2-2.3,4-3.7c0.8-1.5,1.2-3,1.2-4.8c0-1.7-0.4-3.3-1.1-4.6c-0.8-1.3-1.7-2.4-2.9-3.2
		c-1.2-0.8-2.5-1.5-4.1-1.9C374.2,75.3,372.6,75.2,371,75.2z"/>
	<path class="st0" d="M405.2,127.6c-2.5,0-4.5-0.7-6.1-1.9c-1.6-1.3-2.4-3.2-2.4-5.6c0-0.4,0-0.7,0-1.1c0-0.4,0.1-0.8,0.1-1.2
		l8.9-41.8h-7.4l0.9-4.4h7.4l4-18.8h5.3l-4,18.8h12.2l-0.9,4.4H411l-8,37.3c-0.5,2.3-0.8,3.7-0.8,4.2c0,1.6,0.5,2.8,1.6,3.7
		c1.1,0.8,2.3,1.2,3.7,1.2c1.1,0,2.1-0.1,3-0.3c0.9-0.3,1.9-0.5,2.7-0.8c0.8-0.3,1.5-0.7,2-0.8c0.5-0.1,0.9-0.4,1.1-0.5l0.7,4.2
		c-0.3,0.3-0.8,0.5-1.6,0.8c-0.8,0.4-1.6,0.7-2.7,1.1c-1.1,0.4-2.3,0.7-3.4,0.9C407.9,127.5,406.5,127.6,405.2,127.6z"/>
	<path class="st0" d="M445,128c-3,0-5.8-0.7-8.2-1.9c-2.4-1.3-4.5-2.9-6.2-5c-1.7-2.1-3-4.6-3.8-7.4c-0.9-2.8-1.3-5.7-1.3-8.9
		c0-4.4,0.8-8.5,2.5-12.6c1.7-4.1,4-7.7,6.9-10.9s6.1-5.7,9.8-7.7c3.7-1.9,7.6-2.9,11.5-2.9c2.4,0,4.4,0.4,6.4,1.1
		c1.9,0.7,3.6,1.6,5,2.8c1.5,1.2,2.8,2.5,3.8,4.1c1.1,1.6,1.9,3.2,2.5,5l2.5-11.9h5.4l-10.2,47.5c-0.1,0.5-0.3,0.9-0.3,1.3
		c0,1.1,0.7,1.6,1.9,1.6l-1.1,4.8c-0.4,0.1-0.7,0.1-0.9,0.1s-0.5,0-0.7,0c-1.5,0-2.5-0.4-3.2-1.1c-0.8-0.7-1.1-1.6-1.1-2.8
		c0-0.3,0-0.5,0-0.8s0.1-0.8,0.3-1.3c0.1-0.5,0.3-1.2,0.4-2.1c0.1-0.8,0.4-2,0.7-3.3c-2.9,3.7-6.4,6.6-10.3,8.8
		C453.1,126.9,449.1,128,445,128z M447,123.2c1.9,0,4-0.4,6.2-1.2c2.3-0.8,4.4-1.9,6.5-3.2s4-2.9,5.6-4.8c1.6-1.9,2.8-3.7,3.4-5.7
		l3.8-18.2c-0.3-2-0.9-3.8-1.9-5.6c-0.9-1.7-2.1-3.3-3.6-4.6c-1.5-1.3-3-2.4-4.9-3.2c-1.9-0.8-3.8-1.2-6-1.2c-3.4,0-6.6,0.8-9.7,2.5
		c-3,1.7-5.7,3.8-8,6.6s-4.1,5.8-5.6,9.1c-1.3,3.4-2.1,6.8-2.1,10.2c0,2.5,0.4,5,1.2,7.3c0.8,2.4,1.9,4.4,3.3,6.1c1.5,1.7,3,3,5,4.1
		S444.6,123.2,447,123.2z"/>
	<path class="st1" d="M488.5,88.7c0-4.6,0.8-9.1,2.5-13.7c1.7-4.5,4.1-8.5,7.3-12.1c3.2-3.6,7-6.4,11.7-8.6
		c4.6-2.3,9.8-3.3,15.6-3.3c6.9,0,12.9,1.5,18,4.5c5,3,8.8,7,11.3,11.9l-11.3,7.8c-0.9-2.1-2.3-3.8-3.6-5.3
		c-1.5-1.5-2.9-2.7-4.5-3.4c-1.6-0.8-3.3-1.5-5-1.9c-1.7-0.4-3.4-0.5-5.2-0.5c-3.7,0-6.9,0.8-9.5,2.3c-2.8,1.5-5,3.4-6.8,5.8
		c-1.9,2.4-3.2,5-4.1,8.1c-0.9,3-1.3,6-1.3,9c0,3.3,0.5,6.5,1.6,9.5s2.5,5.8,4.5,8.1c2,2.4,4.2,4.2,7,5.6c2.8,1.5,5.7,2.1,9,2.1
		c1.7,0,3.4-0.3,5.3-0.7c1.9-0.4,3.6-1.1,5.3-2c1.7-0.9,3.2-2.1,4.6-3.6c1.5-1.5,2.5-3.2,3.4-5.3l11.9,6.9c-1.2,2.8-2.9,5.3-5.2,7.4
		c-2.3,2.1-4.8,4-7.6,5.4s-5.8,2.7-9,3.4c-3.2,0.8-6.2,1.2-9.3,1.2c-5.4,0-10.3-1.2-14.7-3.4c-4.5-2.3-8.2-5.2-11.5-8.9
		c-3.2-3.6-5.7-7.8-7.6-12.5C489.4,98.3,488.5,93.5,488.5,88.7z"/>
	<path class="st1" d="M616,126.9h-14.2V95.8c0-4.4-0.8-7.6-2.4-9.7c-1.6-2.1-4-3.2-6.9-3.2c-1.3,0-2.7,0.3-4,0.8
		c-1.5,0.5-2.8,1.3-4,2.4c-1.3,1.1-2.4,2.3-3.4,3.7c-1.1,1.5-1.9,2.9-2.4,4.6v32.5h-14.2V49.5h14.2v32.1c2-3.6,4.8-6.4,8.4-8.4
		c3.4-2,7.4-2.9,11.7-2.9c3.6,0,6.5,0.7,8.8,1.9c2.3,1.2,4,2.9,5.3,4.9c1.3,2,2.1,4.4,2.7,7s0.8,5.3,0.8,8.1v34.7H616z"/>
	<path class="st1" d="M654.2,128c-4.5,0-8.5-0.8-12.1-2.3c-3.6-1.5-6.6-3.6-9.3-6.2c-2.5-2.7-4.5-5.7-5.8-9.1s-2.1-7.2-2.1-10.9
		c0-4,0.7-7.7,2-11.1c1.3-3.4,3.3-6.6,5.8-9.3c2.5-2.7,5.6-4.8,9.3-6.4c3.6-1.6,7.7-2.4,12.2-2.4s8.6,0.8,12.2,2.4
		c3.6,1.6,6.6,3.6,9.1,6.2c2.5,2.7,4.4,5.7,5.7,9.1c1.3,3.4,2,7,2,10.9c0,0.9,0,1.9,0,2.7s-0.1,1.6-0.3,2.1h-43
		c0.3,2.3,0.8,4.1,1.6,5.8c0.8,1.7,2,3.2,3.3,4.4c1.3,1.2,2.9,2.1,4.5,2.8c1.7,0.7,3.4,0.9,5.3,0.9c2.8,0,5.4-0.7,8-2.1
		c2.5-1.3,4.2-3.2,5.2-5.4l12.2,3.4c-2,4.2-5.3,7.7-9.8,10.5C665.8,126.7,660.5,128,654.2,128z M668.7,94.4
		c-0.4-4.1-1.9-7.6-4.6-10.1c-2.8-2.5-6-3.7-9.9-3.7c-1.9,0-3.7,0.4-5.3,1.1c-1.7,0.7-3.2,1.6-4.4,2.8c-1.3,1.2-2.3,2.7-3.2,4.4
		c-0.8,1.7-1.3,3.6-1.5,5.6H668.7z"/>
	<path class="st1" d="M688.4,99.1c0-3.8,0.7-7.6,2-11c1.3-3.4,3.3-6.5,5.8-9.1c2.5-2.7,5.6-4.6,9.3-6.2c3.6-1.6,7.7-2.4,12.2-2.4
		c6.1,0,11.3,1.3,15.5,4c4.2,2.7,7.4,6.1,9.5,10.3l-13.9,4.2c-1.2-2-2.8-3.6-4.8-4.8c-2-1.1-4.1-1.6-6.6-1.6c-2,0-4,0.4-5.7,1.2
		c-1.7,0.8-3.3,2-4.6,3.4c-1.3,1.5-2.4,3.2-3,5.3c-0.8,2-1.1,4.4-1.1,6.8c0,2.5,0.4,4.8,1.2,6.8c0.8,2,1.9,3.8,3.2,5.3
		s2.8,2.7,4.6,3.4c1.7,0.8,3.6,1.2,5.6,1.2c2.5,0,4.9-0.7,7-1.9c2.1-1.3,3.7-2.8,4.5-4.6l13.9,4.2c-1.9,4.2-5,7.7-9.4,10.3
		s-9.7,4-15.8,4c-4.5,0-8.6-0.8-12.2-2.4c-3.6-1.6-6.6-3.7-9.3-6.4c-2.5-2.7-4.5-5.7-5.8-9.3C689.1,106.6,688.4,102.9,688.4,99.1z"
		/>
	<path class="st1" d="M789.8,126.9l-16.2-24l-7.7,7.6v16.6h-14.2V49.5h14.2v46.9l22.3-25.1h15.1L782.6,95l22.3,32H789.8z"/>
	<g>
		<path class="st1" d="M786.4,51.7H781v14.1h-2.7V51.7h-5.4v-2.3h13.4v2.3H786.4z"/>
		<path class="st1" d="M802.2,65.8V54.1l-4.9,8.9h-1.5l-4.9-8.9v11.7h-2.5V49.5h2.8l5.4,9.9l5.4-9.9h2.8v16.3H802.2z"/>
	</g>
</g>
<g>
	<path class="st1" d="M46.4,540.1c0-2.5,0.4-4.9,1.3-7.4c0.9-2.5,2.1-4.7,3.8-6.6c1.7-1.9,3.7-3.5,6.2-4.7c2.4-1.2,5.2-1.8,8.3-1.8
		c3.7,0,6.8,0.8,9.4,2.5c2.6,1.7,4.5,3.8,5.8,6.5l-3.2,2c-0.7-1.4-1.5-2.5-2.4-3.4c-0.9-0.9-2-1.7-3-2.3c-1.1-0.6-2.2-1-3.4-1.2
		c-1.2-0.3-2.3-0.4-3.4-0.4c-2.5,0-4.7,0.5-6.6,1.5c-1.9,1-3.5,2.3-4.8,4c-1.3,1.6-2.3,3.5-2.9,5.5c-0.7,2-1,4.1-1,6.2
		c0,2.3,0.4,4.5,1.2,6.6c0.8,2.1,1.9,3.9,3.3,5.5c1.4,1.6,3,2.9,4.9,3.8c1.9,0.9,3.9,1.4,6.1,1.4c1.2,0,2.4-0.1,3.6-0.4
		c1.2-0.3,2.4-0.8,3.5-1.4c1.1-0.6,2.2-1.4,3.2-2.4c1-0.9,1.8-2.1,2.4-3.5l3.4,1.7c-0.7,1.5-1.6,2.9-2.8,4.1c-1.2,1.2-2.5,2.2-4,3
		c-1.5,0.8-3,1.4-4.7,1.9c-1.6,0.4-3.3,0.6-4.9,0.6c-2.8,0-5.4-0.6-7.8-1.9c-2.4-1.2-4.4-2.9-6.1-4.9c-1.7-2-3-4.3-4-6.8
		C46.9,545.3,46.4,542.7,46.4,540.1z"/>
	<path class="st1" d="M101.1,561.6c-2.2,0-4.2-0.4-6-1.2c-1.8-0.8-3.4-2-4.7-3.4c-1.3-1.4-2.4-3.1-3.1-5c-0.7-1.9-1.1-3.9-1.1-6
		c0-2.1,0.4-4.1,1.1-6c0.8-1.9,1.8-3.6,3.1-5c1.3-1.4,2.9-2.6,4.7-3.4c1.8-0.9,3.8-1.3,6-1.3c2.2,0,4.2,0.4,6,1.3
		c1.8,0.9,3.4,2,4.8,3.4c1.3,1.4,2.4,3.1,3.1,5c0.8,1.9,1.1,3.9,1.1,6c0,2.1-0.4,4.1-1.1,6c-0.7,1.9-1.8,3.6-3.1,5
		c-1.3,1.4-2.9,2.6-4.8,3.4C105.3,561.2,103.3,561.6,101.1,561.6z M90.1,546c0,1.7,0.3,3.3,0.9,4.7c0.6,1.5,1.4,2.7,2.4,3.8
		c1,1.1,2.1,2,3.5,2.6c1.3,0.6,2.8,0.9,4.3,0.9s2.9-0.3,4.3-1c1.3-0.6,2.5-1.5,3.5-2.6c1-1.1,1.8-2.4,2.4-3.9
		c0.6-1.5,0.9-3.1,0.9-4.8c0-1.7-0.3-3.2-0.9-4.7c-0.6-1.5-1.4-2.8-2.4-3.9c-1-1.1-2.2-2-3.5-2.6c-1.3-0.6-2.8-1-4.3-1
		s-2.9,0.3-4.2,1c-1.3,0.6-2.5,1.5-3.5,2.6c-1,1.1-1.8,2.4-2.4,3.9C90.4,542.7,90.1,544.3,90.1,546z"/>
	<path class="st1" d="M167.8,561h-4v-16.9c0-3.5-0.6-6.1-1.7-7.8c-1.1-1.7-2.8-2.5-5-2.5c-1.2,0-2.3,0.2-3.3,0.6c-1,0.4-2,1-2.8,1.8
		c-0.9,0.8-1.6,1.7-2.3,2.8c-0.7,1.1-1.2,2.2-1.5,3.5V561h-4v-16.9c0-3.6-0.5-6.2-1.6-7.8c-1.1-1.6-2.8-2.4-5-2.4
		c-2.3,0-4.3,0.8-6.1,2.4c-1.8,1.6-3.1,3.7-3.8,6.3V561h-4v-30.3h3.6v6.9c1.2-2.3,2.9-4.1,4.9-5.4c2-1.3,4.2-1.9,6.7-1.9
		c2.6,0,4.6,0.7,6.1,2.1c1.5,1.4,2.5,3.3,2.8,5.6c2.8-5.2,6.7-7.8,11.7-7.8c1.7,0,3.1,0.3,4.3,0.9c1.2,0.6,2.1,1.5,2.8,2.6
		c0.7,1.1,1.2,2.5,1.6,4.1c0.3,1.6,0.5,3.4,0.5,5.4V561z"/>
	<path class="st1" d="M221.2,561h-4v-16.9c0-3.5-0.6-6.1-1.7-7.8c-1.1-1.7-2.8-2.5-5-2.5c-1.2,0-2.3,0.2-3.3,0.6c-1,0.4-2,1-2.8,1.8
		c-0.9,0.8-1.6,1.7-2.3,2.8c-0.7,1.1-1.2,2.2-1.5,3.5V561h-4v-16.9c0-3.6-0.5-6.2-1.6-7.8c-1.1-1.6-2.8-2.4-5-2.4
		c-2.3,0-4.3,0.8-6.1,2.4c-1.8,1.6-3.1,3.7-3.8,6.3V561h-4v-30.3h3.6v6.9c1.2-2.3,2.9-4.1,4.9-5.4c2-1.3,4.2-1.9,6.7-1.9
		c2.6,0,4.6,0.7,6.1,2.1c1.5,1.4,2.5,3.3,2.8,5.6c2.8-5.2,6.7-7.8,11.7-7.8c1.7,0,3.1,0.3,4.3,0.9c1.2,0.6,2.1,1.5,2.8,2.6
		c0.7,1.1,1.2,2.5,1.6,4.1c0.3,1.6,0.5,3.4,0.5,5.4V561z"/>
	<path class="st1" d="M242.6,561.6c-2.2,0-4.2-0.4-6.1-1.2c-1.8-0.8-3.4-2-4.8-3.4c-1.4-1.5-2.4-3.1-3.2-5c-0.8-1.9-1.1-3.9-1.1-6.1
		c0-2.1,0.4-4.1,1.1-6c0.8-1.9,1.8-3.5,3.1-4.9c1.3-1.4,2.9-2.5,4.8-3.4c1.9-0.8,3.9-1.2,6-1.2c2.2,0,4.2,0.4,6.1,1.2
		c1.8,0.8,3.4,2,4.7,3.4c1.3,1.4,2.3,3.1,3.1,4.9c0.7,1.9,1.1,3.8,1.1,5.9c0,0.3,0,0.6,0,0.9c0,0.3,0,0.5-0.1,0.6h-25.9
		c0.1,1.6,0.5,3.1,1.1,4.5c0.6,1.4,1.5,2.6,2.5,3.6c1,1,2.2,1.8,3.5,2.4c1.3,0.6,2.7,0.8,4.2,0.8c1,0,1.9-0.1,2.9-0.4
		c1-0.3,1.9-0.6,2.7-1.1c0.8-0.5,1.5-1,2.2-1.7c0.7-0.7,1.2-1.4,1.5-2.2l3.4,0.9c-0.5,1.1-1.1,2.1-2,3c-0.9,0.9-1.8,1.7-3,2.4
		c-1.1,0.7-2.4,1.2-3.7,1.6C245.5,561.4,244.1,561.6,242.6,561.6z M253.8,544.3c-0.1-1.6-0.5-3.1-1.1-4.4c-0.6-1.3-1.5-2.5-2.4-3.5
		c-1-1-2.1-1.7-3.4-2.3c-1.3-0.5-2.7-0.8-4.2-0.8c-1.5,0-2.9,0.3-4.2,0.8c-1.3,0.5-2.5,1.3-3.5,2.3c-1,1-1.8,2.1-2.4,3.5
		c-0.6,1.4-1,2.8-1.1,4.4H253.8z"/>
	<path class="st1" d="M289.1,561h-4v-16.9c0-3.6-0.5-6.2-1.6-7.8c-1.1-1.6-2.7-2.4-4.9-2.4c-1.2,0-2.3,0.2-3.5,0.6
		c-1.2,0.4-2.2,1-3.2,1.8c-1,0.8-1.9,1.7-2.6,2.8c-0.8,1.1-1.3,2.2-1.7,3.5V561h-4v-30.3h3.6v6.9c1.2-2.2,3-4,5.3-5.3
		c2.3-1.4,4.8-2,7.5-2c1.7,0,3.1,0.3,4.2,0.9c1.2,0.6,2.1,1.5,2.8,2.6c0.7,1.1,1.2,2.5,1.5,4.1c0.3,1.6,0.5,3.4,0.5,5.4V561z"/>
	<path class="st1" d="M295.4,545.8c0-2.1,0.4-4.1,1.1-6c0.7-1.9,1.8-3.6,3.1-5c1.3-1.4,2.9-2.5,4.8-3.3c1.9-0.8,3.9-1.2,6.2-1.2
		c2.9,0,5.4,0.6,7.5,1.9c2.1,1.3,3.7,3,4.8,5.3l-3.8,1.2c-0.9-1.5-2-2.8-3.6-3.6c-1.5-0.9-3.2-1.3-5.1-1.3c-1.5,0-3,0.3-4.3,0.9
		c-1.3,0.6-2.5,1.5-3.5,2.5c-1,1.1-1.8,2.3-2.3,3.8c-0.6,1.5-0.8,3.1-0.8,4.8c0,1.7,0.3,3.3,0.9,4.8c0.6,1.5,1.4,2.8,2.4,3.9
		c1,1.1,2.2,2,3.5,2.6c1.3,0.6,2.8,1,4.3,1c1,0,1.9-0.1,2.9-0.4c0.9-0.3,1.8-0.6,2.6-1.1c0.8-0.5,1.5-1,2.1-1.7c0.6-0.6,1-1.3,1.2-2
		l3.9,1.2c-0.4,1.1-1,2.1-1.9,3c-0.8,0.9-1.8,1.7-2.9,2.4c-1.1,0.7-2.3,1.2-3.7,1.6c-1.3,0.4-2.7,0.6-4.2,0.6
		c-2.2,0-4.2-0.4-6.1-1.2c-1.9-0.8-3.5-2-4.8-3.4c-1.4-1.5-2.4-3.1-3.2-5C295.8,550,295.4,547.9,295.4,545.8z"/>
	<path class="st1" d="M329.4,524.4v-5.8h4v5.8H329.4z M329.4,561v-30.3h4V561H329.4z"/>
	<path class="st1" d="M367.5,561h-4v-16.9c0-3.6-0.5-6.2-1.6-7.8c-1.1-1.6-2.7-2.4-4.9-2.4c-1.2,0-2.3,0.2-3.5,0.6
		c-1.2,0.4-2.2,1-3.2,1.8c-1,0.8-1.9,1.7-2.6,2.8c-0.8,1.1-1.3,2.2-1.7,3.5V561h-4v-30.3h3.6v6.9c1.2-2.2,3-4,5.3-5.3
		c2.3-1.4,4.8-2,7.5-2c1.7,0,3.1,0.3,4.2,0.9c1.2,0.6,2.1,1.5,2.8,2.6c0.7,1.1,1.2,2.5,1.5,4.1c0.3,1.6,0.5,3.4,0.5,5.4V561z"/>
	<path class="st1" d="M388.1,561.4c-2.1,0-4-0.4-5.7-1.3c-1.7-0.9-3.2-2-4.5-3.5c-1.3-1.4-2.2-3.1-2.9-4.9c-0.7-1.9-1-3.8-1-5.8
		c0-2.1,0.3-4.1,1-6c0.7-1.9,1.6-3.6,2.9-5c1.2-1.4,2.7-2.6,4.4-3.4c1.7-0.9,3.6-1.3,5.7-1.3c2.6,0,4.8,0.6,6.7,1.9
		c1.9,1.3,3.5,2.9,4.9,4.9v-6.3h3.5v30.4c0,2.1-0.4,3.9-1.2,5.5c-0.8,1.6-1.9,3-3.2,4c-1.3,1.1-2.9,1.9-4.7,2.4
		c-1.8,0.5-3.7,0.8-5.7,0.8c-3.5,0-6.3-0.6-8.4-1.9c-2.1-1.2-3.9-2.9-5.2-5l2.4-1.9c1.2,1.9,2.8,3.4,4.8,4.3c2,0.9,4.1,1.4,6.4,1.4
		c1.5,0,2.9-0.2,4.2-0.6c1.3-0.4,2.5-1,3.5-1.8c1-0.8,1.8-1.8,2.4-3c0.6-1.2,0.9-2.6,0.9-4.3v-6c-1.2,1.9-2.8,3.5-4.8,4.6
		C392.4,560.8,390.3,561.4,388.1,561.4z M389.2,558.1c1.2,0,2.3-0.2,3.4-0.6c1.1-0.4,2.1-1,3-1.7c0.9-0.7,1.7-1.5,2.3-2.4
		c0.6-0.9,1-1.8,1.2-2.7v-9.4c-0.4-1.1-1-2.1-1.7-3c-0.7-0.9-1.6-1.7-2.5-2.4c-0.9-0.7-1.9-1.2-3-1.6c-1.1-0.4-2.1-0.6-3.2-0.6
		c-1.7,0-3.2,0.4-4.6,1.1c-1.3,0.7-2.5,1.7-3.4,2.8c-0.9,1.2-1.6,2.5-2.1,4c-0.5,1.5-0.7,3-0.7,4.5c0,1.6,0.3,3.2,0.9,4.6
		c0.6,1.5,1.4,2.8,2.4,3.9c1,1.1,2.2,2,3.6,2.6C386.1,557.8,387.6,558.1,389.2,558.1z"/>
	<path class="st0" d="M436.3,561.6c-2.5,0-4.5-0.6-6.2-1.9c-1.6-1.3-2.8-2.8-3.5-4.7l-1.3,6h-2.6l9-42.4h2.9l-4,18.8
		c1.8-2.1,3.8-3.8,5.9-5.1c2.1-1.3,4.3-2,6.7-2c1.7,0,3.3,0.4,4.5,1.1c1.3,0.7,2.4,1.7,3.2,2.8c0.9,1.2,1.5,2.5,1.9,4
		c0.4,1.5,0.6,3,0.6,4.6c0,2.5-0.5,4.9-1.5,7.1c-1,2.3-2.3,4.3-3.9,6s-3.5,3.1-5.5,4.2C440.6,561.1,438.4,561.6,436.3,561.6z
		 M436.3,559c1.8,0,3.6-0.4,5.3-1.3c1.7-0.9,3.2-2.1,4.6-3.6c1.3-1.5,2.4-3.2,3.2-5.1c0.8-1.9,1.2-3.9,1.2-5.9
		c0-1.3-0.2-2.6-0.6-3.8c-0.4-1.2-0.9-2.3-1.7-3.3c-0.7-0.9-1.6-1.7-2.7-2.3c-1-0.6-2.3-0.8-3.7-0.8c-1.2,0-2.3,0.2-3.4,0.6
		c-1.1,0.4-2.2,1-3.2,1.7c-1,0.7-2,1.5-2.9,2.4c-0.9,0.9-1.8,1.9-2.6,3l-2.3,11.2c0.1,1,0.4,2,0.9,2.9c0.5,0.9,1.1,1.7,1.9,2.3
		c0.8,0.6,1.7,1.1,2.6,1.5C434.1,558.8,435.2,559,436.3,559z"/>
	<path class="st0" d="M469.1,561.6c-1.8,0-3.4-0.3-4.9-1c-1.4-0.7-2.6-1.6-3.6-2.8c-1-1.2-1.7-2.5-2.2-4.1c-0.5-1.5-0.8-3.2-0.8-4.9
		c0-2.4,0.5-4.7,1.4-6.9c0.9-2.2,2.2-4.2,3.8-5.9c1.6-1.7,3.5-3.1,5.7-4.2c2.2-1,4.6-1.6,7.1-1.6c1.2,0,2.4,0.2,3.5,0.5
		c1.1,0.3,2.1,0.9,3,1.5c0.9,0.7,1.6,1.5,2.1,2.5c0.5,1,0.8,2.2,0.8,3.5c0,5.8-5.3,8.7-15.8,8.7c-1.2,0-2.5,0-3.9-0.1
		c-1.4,0-2.9-0.1-4.6-0.2c0,0.3-0.1,0.6-0.1,1c0,0.3,0,0.7,0,1c0,1.4,0.2,2.8,0.6,4.1c0.4,1.3,0.9,2.4,1.7,3.3
		c0.8,0.9,1.7,1.7,2.8,2.3c1.1,0.6,2.5,0.8,4,0.8c1,0,2-0.1,3-0.4c1-0.3,2-0.7,2.9-1.2c0.9-0.5,1.8-1.2,2.6-1.9
		c0.8-0.8,1.5-1.6,2-2.5l2.4,0.8c-0.7,1.2-1.5,2.2-2.5,3.1c-1,0.9-2.1,1.7-3.3,2.4c-1.2,0.7-2.4,1.2-3.7,1.6
		C471.8,561.4,470.5,561.6,469.1,561.6z M475.3,532.6c-1.8,0-3.5,0.3-5,1c-1.5,0.7-2.9,1.6-4.1,2.7c-1.2,1.1-2.2,2.4-3.1,3.8
		c-0.9,1.4-1.5,2.9-1.9,4.4c1.6,0.1,3.1,0.2,4.4,0.2c1.3,0,2.6,0.1,3.8,0.1c2.4,0,4.4-0.2,6.1-0.5c1.6-0.3,3-0.8,4-1.4
		c1-0.6,1.7-1.3,2.2-2.1c0.4-0.8,0.7-1.7,0.7-2.6c0-1-0.2-1.8-0.6-2.5c-0.4-0.7-0.9-1.3-1.6-1.8c-0.6-0.5-1.4-0.8-2.2-1
		C477,532.8,476.2,532.6,475.3,532.6z"/>
	<path class="st0" d="M494,561.3c-1.4,0-2.5-0.3-3.4-1c-0.9-0.7-1.3-1.7-1.3-3.1c0-0.2,0-0.4,0-0.6c0-0.2,0-0.4,0.1-0.7l4.9-22.8
		h-4.1l0.5-2.4h4.1l2.1-10.3h2.9l-2.1,10.3h6.7l-0.5,2.4h-6.7l-4.4,20.4c-0.3,1.2-0.4,2-0.4,2.3c0,0.9,0.3,1.6,0.8,2
		c0.6,0.4,1.2,0.7,2.1,0.7c0.6,0,1.1-0.1,1.7-0.2s1-0.3,1.4-0.4c0.4-0.2,0.8-0.3,1.1-0.5c0.3-0.1,0.5-0.2,0.6-0.3l0.3,2.3
		c-0.2,0.1-0.4,0.3-0.8,0.5c-0.4,0.2-0.9,0.4-1.5,0.6c-0.6,0.2-1.2,0.4-1.9,0.5C495.5,561.3,494.8,561.3,494,561.3z"/>
	<path class="st0" d="M515.9,561.6c-1.7,0-3.2-0.3-4.5-1c-1.3-0.7-2.5-1.6-3.4-2.8c-0.9-1.2-1.6-2.5-2.1-4c-0.5-1.5-0.7-3.1-0.7-4.9
		c0-2.4,0.5-4.7,1.4-6.9c0.9-2.2,2.2-4.2,3.7-6s3.4-3.1,5.4-4.2c2-1,4.1-1.6,6.3-1.6c1.3,0,2.4,0.2,3.5,0.6c1,0.4,1.9,0.9,2.8,1.5
		c0.8,0.6,1.5,1.4,2.1,2.2c0.6,0.9,1,1.8,1.4,2.7l1.4-6.6h3l-5.6,26c-0.1,0.3-0.1,0.5-0.1,0.7c0,0.6,0.3,0.9,1,0.9l-0.6,2.6
		c-0.2,0-0.4,0.1-0.5,0.1c-0.1,0-0.3,0-0.4,0c-0.8,0-1.4-0.2-1.8-0.6c-0.4-0.4-0.6-0.9-0.6-1.5c0-0.1,0-0.3,0-0.4
		c0-0.2,0.1-0.4,0.1-0.7s0.1-0.7,0.2-1.1c0.1-0.5,0.2-1.1,0.3-1.8c-1.6,2-3.5,3.6-5.7,4.8C520.3,561,518.1,561.6,515.9,561.6z
		 M516.9,559c1,0,2.2-0.2,3.4-0.7c1.2-0.4,2.4-1,3.6-1.8c1.1-0.7,2.2-1.6,3-2.6c0.9-1,1.5-2,1.9-3.1l2.1-9.9c-0.2-1.1-0.5-2.1-1-3.1
		c-0.5-1-1.2-1.8-2-2.6c-0.8-0.7-1.7-1.3-2.7-1.7c-1-0.4-2.1-0.6-3.3-0.6c-1.9,0-3.6,0.5-5.3,1.4c-1.7,0.9-3.1,2.1-4.4,3.6
		c-1.3,1.5-2.3,3.2-3,5c-0.8,1.9-1.1,3.7-1.1,5.6c0,1.4,0.2,2.7,0.6,4c0.4,1.3,1,2.4,1.8,3.3c0.8,0.9,1.7,1.7,2.8,2.3
		C514.4,558.7,515.6,559,516.9,559z"/>
	<path class="st1" d="M566.8,530.6c-0.3-0.3-0.8-0.6-1.5-1.1c-0.7-0.5-1.6-0.9-2.6-1.4c-1-0.4-2.1-0.8-3.3-1.1
		c-1.2-0.3-2.4-0.5-3.7-0.5c-2.2,0-3.9,0.4-4.9,1.2c-1.1,0.8-1.6,2-1.6,3.4c0,0.9,0.2,1.6,0.6,2.1c0.4,0.6,1,1.1,1.8,1.5
		c0.8,0.4,1.8,0.8,2.9,1.2s2.5,0.7,4.1,1.1c2,0.5,3.8,1.1,5.5,1.7c1.6,0.6,3,1.4,4.2,2.3c1.1,0.9,2,2,2.6,3.3
		c0.6,1.3,0.9,2.9,0.9,4.8c0,2.2-0.4,4.1-1.2,5.7c-0.8,1.6-2,2.8-3.4,3.8c-1.4,1-3,1.7-4.9,2.1c-1.8,0.4-3.8,0.7-5.8,0.7
		c-3.1,0-6.2-0.5-9.2-1.4c-3-0.9-5.7-2.2-8.1-3.9l3.5-6.9c0.3,0.3,1,0.8,1.9,1.4c0.9,0.6,2,1.1,3.2,1.7c1.2,0.6,2.6,1,4.1,1.4
		c1.5,0.4,3.1,0.6,4.6,0.6c4.4,0,6.6-1.4,6.6-4.2c0-0.9-0.3-1.6-0.8-2.3c-0.5-0.6-1.2-1.2-2.1-1.6s-2.1-0.9-3.4-1.3
		c-1.3-0.4-2.8-0.8-4.4-1.3c-2-0.5-3.7-1.1-5.1-1.8c-1.5-0.6-2.7-1.4-3.6-2.3c-1-0.9-1.7-1.9-2.2-3c-0.5-1.1-0.7-2.5-0.7-4.1
		c0-2.1,0.4-4,1.2-5.6s1.8-3,3.2-4.1c1.4-1.1,3-1.9,4.8-2.5c1.8-0.6,3.8-0.8,5.9-0.8c2.9,0,5.6,0.5,8,1.4c2.4,0.9,4.6,2,6.4,3.2
		L566.8,530.6z"/>
	<path class="st1" d="M588.8,519.8h7.1l15.7,41.2h-8.2l-3.8-10.3h-14.4l-3.8,10.3h-8.2L588.8,519.8z M598.1,545.1l-5.7-16.2
		l-5.9,16.2H598.1z"/>
	<path class="st1" d="M616.1,561v-41.2h27.7v7h-19.7v10.6h16.4v6.5h-16.4V561H616.1z"/>
	<path class="st1" d="M678.1,554v7h-28.6v-41.2h28.1v7h-20.1v9.9h17.4v6.5h-17.4V554H678.1z"/>
	<path class="st1" d="M699.8,524.7h-5.5v12.4h-5.1v-12.4h-5.5v-5.1h16.1V524.7z M716.6,519.8h7.5v17.4h-5.1v-10.9l-3.7,8.4h-4.1
		l-3.7-8.4v10.9h-5.1v-17.4h7.4l3.4,9.1L716.6,519.8z"/>
	<path class="st1" d="M764,561.3c-2.9,0-5.5-0.6-7.9-1.8c-2.4-1.2-4.4-2.7-6.1-4.7c-1.7-2-3-4.2-4-6.7c-0.9-2.5-1.4-5.1-1.4-7.7
		c0-2.7,0.5-5.4,1.5-7.9c1-2.5,2.4-4.7,4.1-6.7c1.7-1.9,3.8-3.5,6.2-4.6c2.4-1.1,4.9-1.7,7.7-1.7c2.9,0,5.5,0.6,7.9,1.8
		c2.4,1.2,4.4,2.8,6.1,4.8s3,4.2,3.9,6.7c0.9,2.5,1.4,5,1.4,7.6c0,2.8-0.5,5.4-1.5,7.9c-1,2.5-2.3,4.7-4.1,6.7
		c-1.7,1.9-3.8,3.4-6.1,4.6C769.3,560.7,766.7,561.3,764,561.3z M748.7,540.4c0,2.2,0.4,4.4,1.1,6.5c0.7,2.1,1.8,3.9,3.1,5.5
		c1.4,1.6,3,2.9,4.8,3.8c1.9,0.9,3.9,1.4,6.2,1.4c2.3,0,4.4-0.5,6.3-1.5c1.9-1,3.5-2.3,4.8-4c1.3-1.6,2.3-3.5,3-5.5
		c0.7-2.1,1.1-4.1,1.1-6.3c0-2.2-0.4-4.4-1.1-6.5c-0.8-2.1-1.8-3.9-3.2-5.5c-1.4-1.6-3-2.9-4.8-3.8c-1.9-0.9-3.9-1.4-6.2-1.4
		c-2.3,0-4.4,0.5-6.3,1.5c-1.9,1-3.5,2.3-4.8,3.9c-1.3,1.6-2.3,3.5-3,5.5C749,536.2,748.7,538.2,748.7,540.4z"/>
	<path class="st1" d="M805.6,561.6c-2.6,0-4.8-0.6-6.8-1.9c-2-1.3-3.5-2.9-4.7-4.9v18.6h-4v-42.6h3.5v5.9c1.2-1.9,2.8-3.4,4.8-4.6
		c2-1.2,4.1-1.8,6.4-1.8c2.1,0,4,0.4,5.8,1.3c1.7,0.9,3.3,2,4.5,3.5c1.3,1.5,2.3,3.1,3,5c0.7,1.9,1.1,3.9,1.1,5.9c0,2.1-0.3,4.1-1,6
		c-0.7,1.9-1.6,3.6-2.8,5c-1.2,1.4-2.7,2.6-4.4,3.4C809.5,561.2,807.6,561.6,805.6,561.6z M804.5,558.1c1.6,0,3.1-0.3,4.4-1
		c1.3-0.7,2.5-1.6,3.4-2.8c0.9-1.1,1.7-2.4,2.2-3.9c0.5-1.5,0.8-3,0.8-4.5c0-1.6-0.3-3.2-0.9-4.6c-0.6-1.5-1.4-2.8-2.4-3.9
		c-1-1.1-2.2-2-3.6-2.7c-1.4-0.7-2.9-1-4.4-1c-1,0-2.1,0.2-3.2,0.6c-1.1,0.4-2.1,0.9-3.1,1.6c-1,0.7-1.8,1.5-2.4,2.4
		c-0.7,0.9-1.1,1.9-1.2,2.9v9.3c0.5,1.1,1.1,2.1,1.8,3c0.7,0.9,1.5,1.7,2.4,2.4c0.9,0.7,1.9,1.2,2.9,1.6
		C802.3,557.9,803.4,558.1,804.5,558.1z"/>
	<path class="st1" d="M839.1,561.6c-2.2,0-4.2-0.4-6.1-1.2c-1.8-0.8-3.4-2-4.8-3.4c-1.4-1.5-2.4-3.1-3.2-5c-0.8-1.9-1.1-3.9-1.1-6.1
		c0-2.1,0.4-4.1,1.1-6c0.8-1.9,1.8-3.5,3.1-4.9c1.3-1.4,2.9-2.5,4.8-3.4c1.9-0.8,3.9-1.2,6-1.2c2.2,0,4.2,0.4,6.1,1.2
		c1.8,0.8,3.4,2,4.7,3.4c1.3,1.4,2.3,3.1,3.1,4.9c0.7,1.9,1.1,3.8,1.1,5.9c0,0.3,0,0.6,0,0.9c0,0.3,0,0.5-0.1,0.6H828
		c0.1,1.6,0.5,3.1,1.1,4.5c0.6,1.4,1.5,2.6,2.5,3.6c1,1,2.2,1.8,3.5,2.4c1.3,0.6,2.7,0.8,4.2,0.8c1,0,1.9-0.1,2.9-0.4
		c1-0.3,1.9-0.6,2.7-1.1c0.8-0.5,1.5-1,2.2-1.7c0.7-0.7,1.2-1.4,1.5-2.2l3.4,0.9c-0.5,1.1-1.1,2.1-2,3c-0.9,0.9-1.8,1.7-3,2.4
		c-1.1,0.7-2.4,1.2-3.7,1.6C842,561.4,840.5,561.6,839.1,561.6z M850.2,544.3c-0.1-1.6-0.5-3.1-1.1-4.4c-0.6-1.3-1.5-2.5-2.4-3.5
		c-1-1-2.1-1.7-3.4-2.3c-1.3-0.5-2.7-0.8-4.2-0.8s-2.9,0.3-4.2,0.8c-1.3,0.5-2.5,1.3-3.5,2.3c-1,1-1.8,2.1-2.4,3.5
		c-0.6,1.4-1,2.8-1.1,4.4H850.2z"/>
	<path class="st1" d="M875.2,534.2c-2.7,0.1-5,0.8-7,2.2c-2,1.4-3.4,3.3-4.2,5.8V561h-4v-30.3h3.7v7.3c1.1-2.3,2.6-4.1,4.5-5.5
		c1.9-1.3,3.9-2,6.1-2c0.3,0,0.6,0,0.8,0.1V534.2z"/>
	<path class="st1" d="M887.7,561.6c-1.4,0-2.8-0.2-4-0.7c-1.2-0.5-2.3-1.2-3.2-2c-0.9-0.9-1.6-1.8-2.1-3c-0.5-1.1-0.8-2.4-0.8-3.7
		c0-1.3,0.3-2.5,0.9-3.7c0.6-1.1,1.5-2.1,2.6-2.9c1.1-0.8,2.5-1.4,4-1.9c1.5-0.4,3.3-0.7,5.1-0.7c1.5,0,3.1,0.1,4.7,0.4
		c1.6,0.3,3,0.7,4.2,1.2v-2.7c0-2.7-0.8-4.8-2.3-6.4c-1.5-1.6-3.6-2.4-6.3-2.4c-1.5,0-3.1,0.3-4.8,0.9c-1.6,0.6-3.3,1.5-4.9,2.7
		l-1.4-2.6c3.9-2.6,7.7-4,11.4-4c3.8,0,6.8,1.1,8.9,3.2c2.2,2.1,3.3,5.1,3.3,8.8v13.7c0,1.1,0.5,1.6,1.5,1.6v3.5
		c-0.7,0.1-1.2,0.2-1.5,0.2c-1,0-1.8-0.3-2.4-0.8c-0.6-0.5-0.9-1.2-0.9-2.1l-0.1-2.4c-1.4,1.8-3.1,3.2-5.3,4.2
		C892.4,561.1,890.1,561.6,887.7,561.6z M888.6,558.6c2.1,0,3.9-0.4,5.7-1.2c1.7-0.8,3-1.8,3.9-3.1c0.3-0.3,0.6-0.7,0.8-1.1
		c0.2-0.4,0.3-0.8,0.3-1.1v-4.9c-1.3-0.5-2.7-0.9-4.1-1.2c-1.4-0.3-2.9-0.4-4.3-0.4c-2.8,0-5.1,0.6-6.8,1.7
		c-1.7,1.2-2.6,2.7-2.6,4.6c0,0.9,0.2,1.8,0.6,2.6c0.4,0.8,0.9,1.5,1.5,2.1c0.6,0.6,1.4,1.1,2.3,1.4
		C886.7,558.4,887.6,558.6,888.6,558.6z"/>
	<path class="st1" d="M926,559.5c-0.2,0.1-0.6,0.3-1,0.5c-0.4,0.2-1,0.4-1.5,0.6c-0.6,0.2-1.2,0.4-2,0.5c-0.7,0.2-1.5,0.2-2.3,0.2
		c-0.9,0-1.7-0.1-2.4-0.3c-0.8-0.2-1.5-0.6-2-1.1c-0.6-0.5-1-1.1-1.4-1.8c-0.3-0.7-0.5-1.6-0.5-2.6v-21.7h-4.2v-3.1h4.2v-10.2h4
		v10.2h7v3.1h-7v20.6c0.1,1.1,0.5,1.9,1.2,2.5c0.7,0.5,1.5,0.8,2.5,0.8c1.1,0,2.1-0.2,3-0.6c0.9-0.4,1.4-0.6,1.6-0.8L926,559.5z"/>
	<path class="st1" d="M931,524.4v-5.8h4v5.8H931z M931,561v-30.3h4V561H931z"/>
	<path class="st1" d="M956.5,561.6c-2.2,0-4.2-0.4-6-1.2c-1.8-0.8-3.4-2-4.7-3.4c-1.3-1.4-2.4-3.1-3.1-5c-0.7-1.9-1.1-3.9-1.1-6
		c0-2.1,0.4-4.1,1.1-6c0.8-1.9,1.8-3.6,3.1-5c1.3-1.4,2.9-2.6,4.7-3.4c1.8-0.9,3.8-1.3,6-1.3c2.2,0,4.2,0.4,6,1.3
		c1.8,0.9,3.4,2,4.8,3.4c1.3,1.4,2.4,3.1,3.1,5c0.8,1.9,1.1,3.9,1.1,6c0,2.1-0.4,4.1-1.1,6c-0.7,1.9-1.8,3.6-3.1,5
		c-1.3,1.4-2.9,2.6-4.8,3.4C960.8,561.2,958.7,561.6,956.5,561.6z M945.6,546c0,1.7,0.3,3.3,0.9,4.7c0.6,1.5,1.4,2.7,2.4,3.8
		c1,1.1,2.1,2,3.5,2.6c1.3,0.6,2.8,0.9,4.3,0.9s2.9-0.3,4.3-1c1.3-0.6,2.5-1.5,3.5-2.6c1-1.1,1.8-2.4,2.4-3.9
		c0.6-1.5,0.9-3.1,0.9-4.8c0-1.7-0.3-3.2-0.9-4.7c-0.6-1.5-1.4-2.8-2.4-3.9c-1-1.1-2.2-2-3.5-2.6c-1.3-0.6-2.8-1-4.3-1
		s-2.9,0.3-4.2,1c-1.3,0.6-2.5,1.5-3.5,2.6c-1,1.1-1.8,2.4-2.4,3.9C945.8,542.7,945.6,544.3,945.6,546z"/>
	<path class="st1" d="M1003.6,561h-4v-16.9c0-3.6-0.5-6.2-1.6-7.8c-1.1-1.6-2.7-2.4-4.9-2.4c-1.2,0-2.3,0.2-3.5,0.6
		c-1.2,0.4-2.2,1-3.2,1.8c-1,0.8-1.9,1.7-2.6,2.8c-0.8,1.1-1.3,2.2-1.7,3.5V561h-4v-30.3h3.6v6.9c1.2-2.2,3-4,5.3-5.3
		c2.3-1.4,4.8-2,7.5-2c1.7,0,3.1,0.3,4.2,0.9c1.2,0.6,2.1,1.5,2.8,2.6c0.7,1.1,1.2,2.5,1.5,4.1c0.3,1.6,0.5,3.4,0.5,5.4V561z"/>
	<path class="st1" d="M1022.1,561.6c-2.4,0-4.7-0.4-6.9-1.2c-2.2-0.8-4.2-1.9-5.8-3.4l1.8-2.7c1.7,1.4,3.4,2.4,5.2,3.1
		c1.8,0.7,3.6,1,5.7,1c2.4,0,4.4-0.5,5.8-1.5c1.5-1,2.2-2.4,2.2-4.2c0-0.9-0.2-1.6-0.6-2.1c-0.4-0.6-1-1.1-1.7-1.5
		c-0.8-0.4-1.7-0.8-2.8-1.1c-1.1-0.3-2.5-0.7-4-1c-1.7-0.4-3.3-0.9-4.5-1.3c-1.3-0.4-2.3-0.9-3.2-1.5c-0.8-0.5-1.5-1.2-1.9-2
		c-0.4-0.8-0.6-1.8-0.6-3c0-1.5,0.3-2.8,0.9-4c0.6-1.2,1.4-2.1,2.4-2.9c1-0.8,2.2-1.3,3.6-1.7c1.4-0.4,2.8-0.6,4.4-0.6
		c2.3,0,4.4,0.4,6.3,1.1c1.9,0.8,3.4,1.8,4.6,3l-1.9,2.3c-1.1-1.2-2.5-2-4.1-2.6c-1.6-0.6-3.3-0.9-5-0.9c-1,0-2,0.1-2.9,0.3
		c-0.9,0.2-1.7,0.6-2.4,1c-0.7,0.5-1.2,1.1-1.6,1.8c-0.4,0.7-0.6,1.6-0.6,2.5c0,0.8,0.1,1.5,0.4,2c0.3,0.5,0.7,0.9,1.3,1.3
		c0.6,0.4,1.4,0.7,2.4,1c0.9,0.3,2.1,0.6,3.5,0.9c1.9,0.5,3.6,0.9,5.1,1.4c1.5,0.5,2.7,1,3.7,1.6c1,0.6,1.7,1.4,2.2,2.3
		c0.5,0.9,0.8,2,0.8,3.3c0,2.8-1.1,5-3.2,6.6C1028.6,560.8,1025.7,561.6,1022.1,561.6z"/>
</g>
<g>
	<path class="st0" d="M135.2,359.1c-4.8,0-8.8-1.2-11.9-3.7c-3.1-2.5-5.4-5.5-6.7-9.1l-2.5,11.7h-5.1l17.4-82h5.6l-7.8,36.3
		c3.5-4,7.3-7.3,11.4-9.9c4.1-2.5,8.4-3.8,13-3.8c3.4,0,6.3,0.7,8.8,2.1c2.5,1.4,4.6,3.2,6.2,5.5c1.7,2.2,2.9,4.8,3.8,7.7
		c0.8,2.9,1.2,5.8,1.2,8.8c0,4.8-1,9.4-2.9,13.8c-1.9,4.4-4.4,8.3-7.6,11.7s-6.7,6.1-10.7,8C143.5,358.1,139.4,359.1,135.2,359.1z
		 M135.2,354.1c3.5,0,6.9-0.9,10.3-2.6c3.3-1.7,6.3-4,8.8-6.9c2.5-2.9,4.6-6.2,6.1-9.8c1.5-3.7,2.3-7.5,2.3-11.4
		c0-2.5-0.4-5-1.1-7.4c-0.7-2.4-1.8-4.5-3.2-6.4c-1.4-1.8-3.1-3.3-5.2-4.4c-2-1.1-4.4-1.6-7.1-1.6c-2.2,0-4.4,0.4-6.6,1.2
		c-2.1,0.8-4.2,1.9-6.1,3.3c-1.9,1.3-3.8,2.9-5.6,4.7c-1.8,1.8-3.4,3.7-5,5.7l-4.5,21.6c0.2,2,0.8,3.9,1.8,5.6
		c1,1.7,2.2,3.2,3.7,4.4c1.5,1.2,3.2,2.2,5.1,2.9S133.1,354.1,135.2,354.1z"/>
	<path class="st0" d="M198.7,359.1c-3.5,0-6.6-0.7-9.4-2c-2.7-1.3-5.1-3.1-7-5.3c-1.9-2.2-3.4-4.9-4.3-7.9c-1-3-1.5-6.2-1.5-9.6
		c0-4.6,0.9-9,2.6-13.3c1.8-4.3,4.2-8.1,7.4-11.5c3.1-3.3,6.8-6,11.1-8c4.2-2,8.8-3,13.8-3c2.3,0,4.6,0.3,6.7,1
		c2.2,0.7,4.1,1.7,5.8,3c1.7,1.3,3,2.9,4,4.9c1,1.9,1.5,4.2,1.5,6.7c0,11.2-10.2,16.9-30.6,16.9c-2.4,0-4.9,0-7.6-0.1
		c-2.7-0.1-5.6-0.2-8.8-0.4c-0.1,0.6-0.1,1.2-0.2,1.9c0,0.7-0.1,1.3-0.1,1.9c0,2.8,0.4,5.4,1.1,7.9c0.7,2.5,1.8,4.6,3.3,6.5
		c1.5,1.8,3.3,3.3,5.5,4.4c2.2,1.1,4.8,1.6,7.7,1.6c1.9,0,3.8-0.3,5.8-0.8c2-0.6,3.9-1.3,5.7-2.4c1.8-1,3.5-2.2,5-3.7
		c1.5-1.5,2.8-3.1,3.9-4.9l4.7,1.5c-1.3,2.2-3,4.3-4.9,6.1c-1.9,1.8-4,3.4-6.3,4.7c-2.3,1.3-4.7,2.3-7.2,3
		C203.9,358.8,201.4,359.1,198.7,359.1z M210.8,303.1c-3.5,0-6.8,0.7-9.7,2c-3,1.3-5.6,3-7.9,5.2c-2.3,2.1-4.3,4.6-6,7.4
		c-1.6,2.8-2.9,5.6-3.7,8.5c3.1,0.2,6,0.4,8.5,0.4c2.5,0.1,5,0.1,7.4,0.1c4.6,0,8.6-0.3,11.7-1c3.2-0.6,5.7-1.5,7.7-2.6
		c1.9-1.1,3.4-2.5,4.2-4c0.9-1.5,1.3-3.2,1.3-5.1c0-1.9-0.4-3.5-1.2-4.9c-0.8-1.4-1.8-2.5-3-3.4c-1.2-0.9-2.7-1.6-4.3-2
		C214.1,303.4,212.4,303.1,210.8,303.1z"/>
	<path class="st0" d="M247,358.7c-2.6,0-4.8-0.7-6.5-2c-1.7-1.3-2.6-3.3-2.6-6c0-0.4,0-0.8,0.1-1.2c0-0.4,0.1-0.8,0.2-1.3l9.4-44.1
		h-7.9l1-4.6h7.9l4.2-20h5.6l-4.2,20h12.9l-1,4.6h-12.9l-8.4,39.6c-0.5,2.4-0.8,3.9-0.8,4.5c0,1.7,0.5,3,1.6,3.9
		c1.1,0.9,2.4,1.3,4,1.3c1.1,0,2.2-0.1,3.2-0.3c1-0.2,1.9-0.5,2.8-0.8c0.8-0.3,1.5-0.6,2.1-0.9c0.6-0.3,1-0.5,1.2-0.6l0.7,4.5
		c-0.3,0.2-0.8,0.5-1.6,0.9c-0.8,0.4-1.7,0.8-2.9,1.2c-1.1,0.4-2.4,0.7-3.7,1C249.9,358.5,248.5,358.7,247,358.7z"/>
	<path class="st0" d="M289.2,359.1c-3.2,0-6.1-0.7-8.7-2c-2.6-1.3-4.8-3.1-6.6-5.4c-1.8-2.2-3.2-4.9-4.1-7.8c-0.9-3-1.4-6.1-1.4-9.4
		c0-4.6,0.9-9,2.7-13.3c1.8-4.3,4.2-8.1,7.2-11.5c3-3.4,6.5-6.1,10.4-8.1c3.9-2,8-3,12.2-3c2.5,0,4.7,0.4,6.7,1.1
		c2,0.8,3.8,1.7,5.3,3c1.6,1.2,2.9,2.7,4,4.3c1.1,1.6,2,3.4,2.7,5.3l2.7-12.7h5.7l-10.8,50.3c-0.2,0.6-0.2,1.1-0.2,1.3
		c0,1.1,0.6,1.7,1.9,1.7L318,358c-0.4,0.1-0.7,0.1-1,0.2c-0.3,0-0.5,0.1-0.7,0.1c-1.5,0-2.6-0.4-3.4-1.1c-0.8-0.7-1.2-1.7-1.2-2.9
		c0-0.2,0-0.5,0.1-0.8c0-0.3,0.1-0.8,0.2-1.3s0.2-1.3,0.4-2.2c0.1-0.9,0.4-2.1,0.7-3.5c-3.1,3.9-6.7,7-11,9.3
		C297.8,358,293.5,359.1,289.2,359.1z M291.2,354.1c2,0,4.2-0.4,6.6-1.3c2.4-0.9,4.7-2,6.9-3.4c2.2-1.4,4.2-3.1,5.9-5
		c1.7-1.9,2.9-3.9,3.6-6l4-19.2c-0.3-2.1-1-4.1-2-6c-1-1.9-2.3-3.5-3.8-4.9c-1.5-1.4-3.3-2.5-5.2-3.4c-1.9-0.8-4-1.2-6.3-1.2
		c-3.6,0-7,0.9-10.2,2.7c-3.2,1.8-6.1,4.1-8.5,7c-2.4,2.9-4.4,6.1-5.8,9.7c-1.5,3.6-2.2,7.2-2.2,10.8c0,2.7,0.4,5.3,1.2,7.8
		c0.8,2.5,2,4.6,3.5,6.5c1.5,1.8,3.3,3.3,5.4,4.4C286.5,353.5,288.8,354.1,291.2,354.1z"/>
	<path class="st1" d="M368.8,358v-79.8h29c6.5,0,12.2,1,17.1,3.1c4.9,2.1,9,4.9,12.3,8.5c3.3,3.6,5.8,7.8,7.4,12.6
		c1.6,4.8,2.5,10,2.5,15.5c0,6.1-0.9,11.6-2.8,16.5c-1.8,4.9-4.5,9.1-7.9,12.6c-3.4,3.5-7.6,6.2-12.4,8.1
		c-4.8,1.9-10.2,2.9-16.2,2.9H368.8z M421.5,318c0-3.8-0.5-7.3-1.6-10.6c-1-3.2-2.6-6-4.6-8.3c-2-2.3-4.5-4.1-7.5-5.4
		c-3-1.3-6.3-1.9-10.1-1.9h-13.5v52.6h13.5c3.8,0,7.2-0.7,10.2-2c3-1.3,5.4-3.2,7.4-5.6c2-2.4,3.5-5.2,4.6-8.4
		C421,325.2,421.5,321.7,421.5,318z"/>
	<path class="st1" d="M504.7,344.4V358h-55.4v-79.8h54.4v13.6h-38.9V311h33.6v12.6h-33.6v20.8H504.7z"/>
	<path class="st1" d="M576.5,291.8H551V358h-15.4v-66.2h-25.5v-13.6h66.4V291.8z"/>
	<path class="st1" d="M641.8,344.4V358h-55.4v-79.8h54.4v13.6h-38.9V311h33.6v12.6h-33.6v20.8H641.8z"/>
	<path class="st1" d="M647.4,317.5c0-4.9,0.9-9.7,2.6-14.4c1.8-4.8,4.3-9,7.7-12.8c3.4-3.7,7.5-6.8,12.4-9.1
		c4.9-2.3,10.4-3.5,16.6-3.5c7.3,0,13.7,1.6,19,4.8c5.4,3.2,9.3,7.4,12,12.6l-11.9,8.2c-1.1-2.2-2.3-4.1-3.8-5.7
		c-1.5-1.5-3.1-2.8-4.8-3.7c-1.7-0.9-3.5-1.6-5.4-2c-1.9-0.4-3.7-0.6-5.5-0.6c-3.9,0-7.3,0.8-10.2,2.4c-2.9,1.6-5.3,3.6-7.2,6.1
		c-1.9,2.5-3.4,5.4-4.3,8.5c-1,3.2-1.5,6.4-1.5,9.5c0,3.5,0.6,6.9,1.7,10.2s2.7,6.1,4.8,8.6c2.1,2.5,4.5,4.5,7.4,6
		c2.9,1.5,6.1,2.2,9.5,2.2c1.8,0,3.7-0.2,5.6-0.7c1.9-0.4,3.8-1.2,5.6-2.1c1.8-1,3.4-2.2,4.9-3.8c1.5-1.5,2.7-3.4,3.6-5.6l12.7,7.3
		c-1.3,3-3.1,5.6-5.5,7.9c-2.4,2.3-5,4.2-8,5.8c-3,1.6-6.1,2.8-9.5,3.6s-6.7,1.2-9.9,1.2c-5.7,0-10.9-1.2-15.6-3.6
		c-4.7-2.4-8.8-5.5-12.2-9.4c-3.4-3.9-6.1-8.2-8-13.1C648.3,327.6,647.4,322.6,647.4,317.5z"/>
	<path class="st1" d="M788.2,291.8h-25.5V358h-15.4v-66.2h-25.5v-13.6h66.4V291.8z"/>
	<path class="st1" d="M853.5,344.4V358h-55.4v-79.8h54.4v13.6h-38.9V311h33.6v12.6h-33.6v20.8H853.5z"/>
	<path class="st1" d="M865.6,358v-79.8h29c6.5,0,12.2,1,17.1,3.1c4.9,2.1,9,4.9,12.3,8.5c3.3,3.6,5.8,7.8,7.4,12.6
		c1.6,4.8,2.5,10,2.5,15.5c0,6.1-0.9,11.6-2.8,16.5c-1.8,4.9-4.5,9.1-7.9,12.6c-3.4,3.5-7.6,6.2-12.4,8.1
		c-4.8,1.9-10.2,2.9-16.2,2.9H865.6z M918.3,318c0-3.8-0.5-7.3-1.6-10.6c-1.1-3.2-2.6-6-4.6-8.3c-2-2.3-4.5-4.1-7.5-5.4
		c-3-1.3-6.3-1.9-10.1-1.9h-13.5v52.6h13.5c3.8,0,7.2-0.7,10.2-2c3-1.3,5.4-3.2,7.4-5.6c2-2.4,3.5-5.2,4.6-8.4
		C917.8,325.2,918.3,321.7,918.3,318z"/>
	<path class="st1" d="M947.6,328v-50.6h15.1V328H947.6z M947.6,358v-17h15.1v17H947.6z"/>
</g>
</svg>
